<svg width="76" height="76" viewBox="0 0 76 76" fill="none" xmlns="http://www.w3.org/2000/svg">
<g clip-path="url(#clip0_401_2)">
<path fill-rule="evenodd" clip-rule="evenodd" d="M38 12.6667C38 13.5065 38.3336 14.312 38.9275 14.9058C39.5214 15.4997 40.3268 15.8333 41.1667 15.8333H55.689L38.9278 32.5945C38.4851 33.0374 38.1836 33.6016 38.0615 34.2157C37.9394 34.8299 38.0021 35.4665 38.2417 36.0451C38.4813 36.6236 38.8871 37.1181 39.4077 37.4661C39.9283 37.8141 40.5405 37.9999 41.1667 38H63.3333C64.1732 38 64.9786 37.6664 65.5725 37.0725C66.1664 36.4786 66.5 35.6732 66.5 34.8333C66.5 33.9935 66.1664 33.188 65.5725 32.5942C64.9786 32.0003 64.1732 31.6667 63.3333 31.6667H48.811L65.5722 14.9055C66.0149 14.4626 66.3164 13.8985 66.4385 13.2843C66.5606 12.6701 66.4979 12.0335 66.2583 11.4549C66.0187 10.8764 65.6129 10.3819 65.0923 10.0339C64.5717 9.68593 63.9595 9.50013 63.3333 9.5H41.1667C40.3268 9.5 39.5214 9.83363 38.9275 10.4275C38.3336 11.0214 38 11.8268 38 12.6667ZM12.6667 31.6667C11.8268 31.6667 11.0214 31.333 10.4275 30.7392C9.83363 30.1453 9.5 29.3399 9.5 28.5C9.5 27.6601 9.83363 26.8547 10.4275 26.2608C11.0214 25.667 11.8268 25.3333 12.6667 25.3333H28.5C29.1262 25.3335 29.7383 25.5193 30.259 25.8672C30.7796 26.2152 31.1854 26.7097 31.425 27.2883C31.6646 27.8668 31.7273 28.5034 31.6052 29.1176C31.4831 29.7318 31.1816 30.296 30.7388 30.7388L20.311 41.1667H28.5C29.3399 41.1667 30.1453 41.5003 30.7392 42.0942C31.333 42.688 31.6667 43.4935 31.6667 44.3333C31.6667 45.1732 31.333 45.9786 30.7392 46.5725C30.1453 47.1664 29.3399 47.5 28.5 47.5H12.6667C12.0405 47.4999 11.4283 47.3141 10.9077 46.9661C10.3871 46.6181 9.98131 46.1236 9.74169 45.5451C9.50206 44.9665 9.43936 44.3299 9.56149 43.7157C9.68362 43.1016 9.9851 42.5374 10.4278 42.0945L20.8557 31.6667H12.6667ZM38 53.8333C37.1601 53.8333 36.3547 53.4997 35.7608 52.9058C35.167 52.312 34.8333 51.5065 34.8333 50.6667C34.8333 49.8268 35.167 49.0214 35.7608 48.4275C36.3547 47.8336 37.1601 47.5 38 47.5H50.6667C51.2929 47.5001 51.905 47.6859 52.4256 48.0339C52.9462 48.3819 53.352 48.8764 53.5916 49.4549C53.8313 50.0335 53.894 50.6701 53.7718 51.2843C53.6497 51.8985 53.3482 52.4626 52.9055 52.9055L45.6443 60.1667H50.6667C51.5065 60.1667 52.312 60.5003 52.9058 61.0942C53.4997 61.688 53.8333 62.4935 53.8333 63.3333C53.8333 64.1732 53.4997 64.9786 52.9058 65.5725C52.312 66.1664 51.5065 66.5 50.6667 66.5H38C37.3738 66.4999 36.7617 66.3141 36.2411 65.9661C35.7204 65.6181 35.3146 65.1236 35.075 64.5451C34.8354 63.9665 34.7727 63.3299 34.8948 62.7157C35.017 62.1015 35.3184 61.5374 35.7612 61.0945L43.0223 53.8333H38Z" fill="white"/>
</g>
<defs>
<clipPath id="clip0_401_2">
<rect width="76" height="76" fill="white"/>
</clipPath>
</defs>
</svg>
