<svg width="44" height="44" viewBox="0 0 44 44" fill="none" xmlns="http://www.w3.org/2000/svg">
<path d="M30.4996 6.25531C31.827 6.25531 33.0721 6.50198 34.235 6.99533C35.3978 7.48867 36.408 8.16996 37.2655 9.03918C38.123 9.90841 38.8043 10.9245 39.3094 12.0874C39.8144 13.2502 40.067 14.4953 40.067 15.8227C40.067 16.504 39.9965 17.1794 39.8556 17.8489C39.7146 18.5185 39.5032 19.1645 39.2213 19.7871H31.0635L27.6805 16.2632L22.0423 21.9014L14.1488 14.0079L8.51054 19.7871H4.86331C4.5814 19.1645 4.36997 18.5185 4.22901 17.8489C4.08806 17.1794 4.01758 16.504 4.01758 15.8227C4.01758 14.4953 4.26425 13.2502 4.7576 12.0874C5.25094 10.9245 5.93223 9.91428 6.80145 9.0568C7.67068 8.19932 8.68674 7.51804 9.84962 7.01295C11.0125 6.50786 12.2576 6.25531 13.5849 6.25531C14.8653 6.25531 16.0869 6.49611 17.2498 6.97771C18.4127 7.45931 19.4522 8.15234 20.3684 9.0568L22.0423 10.7483L23.7161 9.0568C24.6206 8.15234 25.6543 7.45931 26.8172 6.97771C27.98 6.49611 29.2075 6.25531 30.4996 6.25531ZM28.8082 22.0423H37.7941L37.5474 22.3243C37.4652 22.4182 37.3771 22.5181 37.2831 22.6238L22.0423 37.847L6.80145 22.6238C6.70748 22.5298 6.61939 22.4358 6.53716 22.3419C6.45494 22.2479 6.37271 22.1481 6.29049 22.0423H10.7658L14.1488 18.8004L22.0423 26.6939L27.6805 21.0557L28.8082 22.0423Z" fill="#2633AF"/>
</svg>
