<svg width="157" height="37" viewBox="0 0 157 37" fill="none" xmlns="http://www.w3.org/2000/svg">
<g clip-path="url(#clip0_3_6)">
<path d="M26.4996 2.25528C27.827 2.25528 29.0721 2.50195 30.235 2.9953C31.3978 3.48864 32.408 4.16993 33.2655 5.03915C34.123 5.90838 34.8043 6.92444 35.3094 8.08732C35.8144 9.25021 36.067 10.4953 36.067 11.8226C36.067 12.5039 35.9965 13.1793 35.8556 13.8489C35.7146 14.5184 35.5032 15.1645 35.2213 15.787H27.0634L23.6805 12.2631L18.0423 17.9014L10.1488 10.0078L4.51054 15.787H0.863312C0.581401 15.1645 0.369967 14.5184 0.229012 13.8489C0.088056 13.1793 0.0175781 12.5039 0.0175781 11.8226C0.0175781 10.4953 0.264251 9.25021 0.757595 8.08732C1.25094 6.92444 1.93223 5.91425 2.80145 5.05677C3.67068 4.19929 4.68674 3.51801 5.84962 3.01292C7.0125 2.50783 8.25761 2.25528 9.58495 2.25528C10.8653 2.25528 12.0869 2.49608 13.2498 2.97768C14.4127 3.45928 15.4522 4.15231 16.3684 5.05677L18.0423 6.74824L19.7161 5.05677C20.6206 4.15231 21.6543 3.45928 22.8172 2.97768C23.98 2.49608 25.2075 2.25528 26.4996 2.25528ZM24.8082 18.0423H33.7941L33.5474 18.3242C33.4652 18.4182 33.3771 18.518 33.2831 18.6238L18.0423 33.847L2.80145 18.6238C2.70748 18.5298 2.61939 18.4358 2.53716 18.3418C2.45494 18.2479 2.37271 18.148 2.29049 18.0423H6.76583L10.1488 14.8003L18.0423 22.6939L23.6805 17.0556L24.8082 18.0423Z" fill="#2633AF"/>
</g>
<path d="M58.6399 27.0424V9.14914H62.423V16.5318H70.1027V9.14914H73.8771V27.0424H70.1027V19.6509H62.423V27.0424H58.6399ZM76.9962 27.0424V9.14914H89.0531V12.2682H80.7793V16.5318H88.4328V19.6509H80.7793V23.9233H89.0881V27.0424H76.9962ZM95.1449 27.0424H91.091L97.268 9.14914H102.143L108.311 27.0424H104.258L99.7755 13.238H99.6357L95.1449 27.0424ZM94.8916 20.0091H104.467V22.9622H94.8916V20.0091ZM110.465 27.0424V9.14914H114.248V23.9233H121.919V27.0424H110.465ZM121.509 12.2682V9.14914H136.204V12.2682H130.726V27.0424H126.987V12.2682H121.509ZM138.624 27.0424V9.14914H142.407V16.5318H150.087V9.14914H153.861V27.0424H150.087V19.6509H142.407V27.0424H138.624Z" fill="white"/>
<defs>
<clipPath id="clip0_3_6">
<rect width="36.0847" height="36.0847" fill="white"/>
</clipPath>
</defs>
</svg>
