<svg width="162" height="146" viewBox="0 0 162 146" fill="none" xmlns="http://www.w3.org/2000/svg">
<path opacity="0.99" d="M114.516 122.88C114.516 112.758 123.507 104.41 128.884 95.8346C128.918 95.7811 128.951 95.7274 128.984 95.6735C132.422 90.1021 134.141 82.5408 134.141 72.9898C134.141 66.5 133.371 61.0204 131.832 56.551C130.344 52.0816 128.266 48.6531 125.598 46.2653C122.93 43.9388 119.903 42.7755 116.517 42.7755C113.695 42.6531 111.232 43.3572 109.129 44.8878C107.025 46.4796 105.204 48.6531 103.664 51.4082C102.177 54.1633 100.868 57.347 99.7395 60.9592C98.6621 64.5714 97.7386 68.4286 96.969 72.5306L93.5828 89.4286C92.0436 97.6327 89.9913 105.163 87.426 112.02C84.8607 118.878 81.7053 124.816 77.96 129.837C74.2146 134.857 69.8023 138.745 64.7229 141.5C59.6436 144.316 53.8203 145.755 47.2531 145.816C37.6075 145.755 29.2445 142.816 22.1642 137C15.1353 131.245 9.67114 122.918 5.77185 112.02C1.92387 101.184 -0.000122631 88.1123 -0.00012207 72.8061C-0.000121514 57.6225 1.94952 44.398 5.84881 33.1327C9.7481 21.9286 15.5201 13.1735 23.1647 6.86735C25.8948 4.65206 28.854 2.81043 32.0424 1.34246C42.1337 -3.30363 51.7167 6.20913 51.7167 17.3186V20.9512C51.7167 29.1814 44.5992 35.4355 38.4797 40.9388C34.9909 44.1837 32.3486 48.5 30.5528 53.8878C28.8084 59.3367 27.9362 65.4898 27.9362 72.3469C27.9362 79.0816 28.7571 84.9286 30.3989 89.8878C32.0407 94.9082 34.3239 98.7959 37.2483 101.551C40.1728 104.306 43.5334 105.684 47.33 105.684C50.8702 105.684 53.846 104.429 56.2574 101.918C58.6688 99.4694 60.721 95.8571 62.4141 91.0816C64.1072 86.3673 65.6464 80.5816 67.0317 73.7245L71.3414 53.2449C74.5738 37.3878 79.6274 24.8674 86.5025 15.6837C93.3776 6.50001 102.638 1.93878 114.285 2.00001C123.828 1.93878 132.165 4.96939 139.297 11.0918C146.428 17.2755 151.995 25.7551 155.997 36.5306C159.999 47.3061 162 59.551 162 73.2653C162 87.2245 159.999 99.4082 155.997 109.816C151.995 120.286 146.428 128.429 139.297 134.245C137.58 135.645 135.799 136.881 133.951 137.955C124.283 143.574 114.516 134.062 114.516 122.88Z" fill="url(#paint0_linear_17_5)"/>
<defs>
<linearGradient id="paint0_linear_17_5" x1="0.73455" y1="71.2963" x2="162.059" y2="71.2963" gradientUnits="userSpaceOnUse">
<stop stop-color="#CF2727"/>
<stop offset="1" stop-color="#134CE0"/>
</linearGradient>
</defs>
</svg>
